<svg width="40" height="40" viewBox="0 0 40 40" fill="none" xmlns="http://www.w3.org/2000/svg">
<path d="M17.8656 32.9424L38.6962 34.0318C38.6962 34.0318 37.806 33.4217 37.9068 31.4547C38.0076 29.4877 38.9553 28.9738 38.9553 28.9738L18.1247 27.8844C18.1247 27.8844 16.8706 28.3823 16.7699 30.3493C16.6691 32.3163 17.8656 32.9424 17.8656 32.9424Z" fill="#FFF5CE" stroke="black" stroke-width="0.305287" stroke-linejoin="round"/>
<path d="M17.7922 32.9445L38.6971 34.0378L23.0667 38.2919L2.16177 37.1986L17.7922 32.9445Z" fill="#FCD535" stroke="black" stroke-width="0.305287" stroke-linejoin="round"/>
<path d="M18.051 27.882L38.9559 28.9753L23.3255 33.2294L2.42056 32.1361L18.051 27.882Z" fill="#FCD535" stroke="black" stroke-width="0.305287" stroke-linejoin="round"/>
<path d="M38.6964 34.0364C38.6964 34.0364 37.8132 33.145 37.8996 31.459C37.9859 29.773 38.9556 28.9785 38.9556 28.9785L23.2558 33.2289L14.4651 35.5867L22.9967 38.2869L38.6964 34.0364Z" fill="white" stroke="black" stroke-width="0.305287" stroke-linejoin="round"/>
<path d="M2.22597 37.1924L23.0566 38.2818C23.0566 38.2818 22.1664 37.6717 22.2671 35.7047C22.3679 33.7377 23.3157 33.2238 23.3157 33.2238L2.4851 32.1344C2.4851 32.1344 1.23097 32.6323 1.1302 34.5993C1.02943 36.5663 2.22597 37.1924 2.22597 37.1924Z" fill="#FFF5CE" stroke="black" stroke-width="0.305287" stroke-linejoin="round"/>
<path d="M36.4326 23.2422L19.0557 22.3334L3.25328 27.2458L22.6599 28.2607L36.4326 23.2422Z" fill="#FCD535" stroke="black" stroke-width="0.305287" stroke-linejoin="round"/>
<path d="M36.4321 23.2319C36.4321 23.2319 37.3341 24.0799 37.2454 25.8102C37.1568 27.5406 36.1729 28.2899 36.1729 28.2899L22.2632 33.1678L22.1166 30.7578L22.2461 28.2289L36.4321 23.2319Z" fill="#FCD535" stroke="black" stroke-width="0.305287" stroke-linejoin="round"/>
<path d="M22.3387 33.186L3.00114 32.1747C3.00114 32.1747 3.88306 31.6573 3.98383 29.6903C4.0846 27.7233 3.26027 27.1167 3.26027 27.1167L22.5978 28.128C22.5978 28.128 23.7066 28.7495 23.6058 30.7165C23.505 32.6835 22.3387 33.186 22.3387 33.186Z" fill="#FFF5CE" stroke="black" stroke-width="0.305287" stroke-linejoin="round"/>
<path d="M18.3832 22.833L39.2138 23.9224C39.2138 23.9224 38.3236 23.3123 38.4244 21.3453C38.5251 19.3783 39.4729 18.8644 39.4729 18.8644L18.6423 17.775C18.6423 17.775 17.3882 18.2729 17.2874 20.2399C17.1867 22.2069 18.3832 22.833 18.3832 22.833Z" fill="#FFF5CE" stroke="black" stroke-width="0.305287" stroke-linejoin="round"/>
<path d="M18.3098 22.8351L39.2147 23.9284L23.5843 28.1825L2.67935 27.0892L18.3098 22.8351Z" fill="#FCD535" stroke="black" stroke-width="0.305287" stroke-linejoin="round"/>
<path d="M18.5685 17.7726L39.4735 18.8659L23.8431 23.12L2.93814 22.0267L18.5685 17.7726Z" fill="#FCD535" stroke="black" stroke-width="0.305287" stroke-linejoin="round"/>
<path d="M39.214 23.9271C39.214 23.9271 38.3308 23.0356 38.4171 21.3496C38.5035 19.6636 39.4731 18.8691 39.4731 18.8691L23.7734 23.1195L14.9827 25.4773L23.5142 28.1775L39.214 23.9271Z" fill="white" stroke="black" stroke-width="0.305287" stroke-linejoin="round"/>
<path d="M2.74355 27.083L23.5742 28.1724C23.5742 28.1724 22.6839 27.5623 22.7847 25.5953C22.8855 23.6283 23.8333 23.1144 23.8333 23.1144L3.00267 22.025C3.00267 22.025 1.74855 22.5229 1.64778 24.4899C1.54701 26.4569 2.74355 27.083 2.74355 27.083Z" fill="#FFF5CE" stroke="black" stroke-width="0.305287" stroke-linejoin="round"/>
<path d="M6.96875 38.857L8.85764 21.0938L24.6952 23.7362L25.567 38.123L22.0799 38.857H6.96875Z" fill="#303030" stroke="black" stroke-width="0.305287"/>
<path d="M6.96875 38.857L8.85764 21.0938L24.6952 23.7362L23.2422 38.857H6.96875Z" fill="#FCD535" stroke="black" stroke-width="0.305287"/>
<path d="M16.2857 27.6836C17.7742 27.8796 18.937 28.254 19.7935 28.8354C20.6288 29.401 21.0076 30.0756 20.9085 30.8434C20.8276 31.4705 20.4622 31.956 19.8598 32.2931C19.6355 32.4067 18.9514 32.655 17.7845 33.0349C17.3458 33.1854 16.9972 33.3607 16.7613 33.564C16.4764 33.7867 16.3256 34.0532 16.2843 34.3731L16.2562 34.5907L13.8059 34.268L13.834 34.0504C13.8951 33.5769 14.0853 33.1855 14.426 32.8919C14.7928 32.5758 15.7307 32.1657 17.2413 31.6489L17.662 31.457C18.1122 31.217 18.3579 30.937 18.4008 30.6042C18.4586 30.1563 18.2742 29.7806 17.8721 29.4674C17.4472 29.1511 16.8225 28.9387 15.9981 28.8301C14.9676 28.6943 14.1887 28.774 13.6845 29.072C13.2327 29.3248 12.9688 29.7456 12.8961 30.3087L10.4687 29.989C10.5893 29.0548 11.1643 28.3886 12.2183 27.9808C13.2511 27.5572 14.614 27.4634 16.2857 27.6836ZM14.9305 35.1189C15.4114 35.1822 15.8137 35.3133 16.1112 35.5347C16.4103 35.7433 16.5425 35.982 16.5078 36.2507C16.4732 36.5195 16.2848 36.7159 15.9411 36.8528C15.5761 36.974 15.1524 37.0093 14.6944 36.9489C14.2134 36.8856 13.8357 36.7447 13.5611 36.5264C13.2407 36.3019 13.1085 36.0633 13.1415 35.8073C13.1762 35.5386 13.3646 35.3421 13.7295 35.221C14.0504 35.0811 14.4496 35.0555 14.9305 35.1189Z" fill="black"/>
<path d="M9.76334 21.6669C10.1953 20.3906 11.9311 20.0715 12.745 20.0715L14.5985 15.7445C14.7854 15.203 15.4178 14.3586 15.7106 14.004C17.2965 12.8115 16.9301 9.70925 16.5487 8.3072C16.4117 7.82374 16.1135 5.72872 18.2168 3.68206C20.4732 1.49035 23.2239 2.01142 24.3171 2.54592C24.4944 2.29613 25.6146 1.61928 27.1457 2.61038C29.3247 3.93186 29.8265 5.64278 29.805 6.33306L29.7325 6.49422C30.1838 6.85682 29.9904 7.2597 29.4666 9.57228C28.9428 11.8849 26.0578 13.3594 25.3648 13.6092C24.8103 13.809 24.6072 14.1598 24.575 14.3102C24.9645 14.2887 25.9095 14.3634 26.5735 14.834C29.4008 16.8376 29.2305 16.8935 31.1685 19.4127L16.049 22.1101C16.186 22.4485 16.4197 23.1576 16.1941 23.5847C15.7106 24.2696 14.5501 23.9473 14.3648 23.77C14.2165 23.6282 14.1794 23.394 14.1794 23.2946C12.5274 24.2696 12.189 24.1165 11.5282 24.1971C10.8674 24.2777 9.22341 23.2624 9.76334 21.6669Z" fill="#FCD535" stroke="black" stroke-width="0.28209"/>
<path d="M29.1765 27.7665C27.5132 27.5538 26.5923 25.7226 26.3398 24.8335C29.2023 25.0978 31.0192 23.6275 31.5699 22.8594C32.5772 23.8585 32.5933 24.0761 32.8834 25.0108C33.1735 25.9455 31.2556 28.0324 29.1765 27.7665Z" fill="#572F0C" stroke="black" stroke-width="0.28209"/>
<path d="M20.9404 29.4883C19.7993 28.6697 19.6537 26.9501 19.7236 26.1927C22.7278 27.7398 25.1604 26.3807 26.0012 25.5078C27.5807 27.0791 27.4518 28.6503 26.7668 29.303C25.147 30.5197 22.3668 30.5117 20.9404 29.4883Z" fill="#572F0C" stroke="black" stroke-width="0.28209"/>
<path d="M31.156 19.2493C31.156 19.2493 29.0844 19.1275 28.5763 20.1857C28.5763 20.1857 28.195 20.815 28.898 21.0854C29.601 21.3558 29.6779 21.2215 29.8713 20.9548C29.8713 20.9548 31.1904 22.8306 32.4893 22.0766C33.7882 21.3226 33.0427 19.5894 31.156 19.2493Z" fill="#FCD535" stroke="black" stroke-width="0.28209" stroke-miterlimit="10"/>
<path d="M26.2594 18.6526C26.4553 20.1808 25.5719 21.5532 24.2862 21.7179C23.0006 21.8827 20.8356 21.1329 20.6397 19.6046C20.4439 18.0764 22.2913 16.3486 23.5769 16.1838C24.8626 16.0191 26.0636 17.1244 26.2594 18.6526Z" fill="#FFEB98"/>
<path d="M17.0242 19.9588L16.0732 22.0941C17.1047 22.6958 19.1693 23.9071 19.1758 23.9393C19.5691 24.6613 19.5116 25.5401 19.4337 25.8893C22.7022 28.0423 25.346 26.3029 26.2593 25.1641L26.3157 24.7854C29.3715 25.1206 31.1025 23.5821 31.586 22.771C31.6892 20.9983 31.441 20.1576 31.304 19.9588C30.7108 18.5535 28.4673 18.2506 27.4197 18.2747L27.315 18.2747C24.3494 20.157 19.3638 20.034 17.0242 19.9588Z" fill="#383A3D" stroke="black" stroke-width="0.28209" stroke-miterlimit="10" stroke-linejoin="round"/>
<path d="M24.5989 14.2578H24.7681C27.1615 14.5559 26.5168 15.5954 27.6853 19.2214C26.6941 19.7613 26.0774 19.598 26.0091 19.1811C25.5095 16.1272 24.889 15.0152 24.7037 14.6124L24.5264 14.5559L24.5989 14.2578Z" fill="#383A3D" stroke="black" stroke-width="0.28209"/>
<path d="M19.7365 26.1524C19.7365 26.1524 19.253 29.859 22.96 30.1813C26.6669 30.5036 28.7621 28.5698 26.0222 25.5078" stroke="black" stroke-width="0.28209" stroke-miterlimit="10"/>
<path d="M26.3398 24.8333C26.3398 24.8333 27.6776 29.3698 31.4651 27.1861C34.6241 25.212 31.5376 22.8672 31.5376 22.8672" stroke="black" stroke-width="0.28209" stroke-miterlimit="10"/>
<path d="M16.0928 22.133C16.0928 22.133 18.8327 23.5834 19.155 23.9057C19.4774 24.228 19.5789 25.4882 19.4484 25.825C19.3178 26.1619 23.5067 28.418 26.2466 25.1949C26.2466 23.4222 27.0524 20.8438 23.3455 20.8438" stroke="black" stroke-width="0.28209" stroke-miterlimit="10"/>
<path d="M26.3398 24.7919C26.3398 24.7919 29.7922 25.3564 31.565 22.7779C31.565 21.0052 32.3193 18.4343 27.3472 18.2812" stroke="black" stroke-width="0.28209" stroke-miterlimit="10"/>
<path d="M13.3291 20.2293C13.3291 20.2293 16.1519 21.1724 16.2863 22.9239C16.2863 22.9239 16.4717 24.008 15.3964 24.008C14.3211 24.008 14.2875 23.779 14.1666 23.3025C14.1666 23.3025 11.4473 25.2143 10.1032 23.4628C8.75903 21.7113 10.6408 19.6904 13.3291 20.2293Z" stroke="black" stroke-width="0.28209" stroke-miterlimit="10"/>
<path d="M12.7051 20.1439L14.6425 15.6885C14.6425 15.6885 15.3483 13.9073 16.2428 14.1006" stroke="black" stroke-width="0.28209" stroke-miterlimit="10"/>
<path d="M16.0332 22.1188L17.8658 17.9453" stroke="black" stroke-width="0.28209" stroke-miterlimit="10"/>
<path d="M15.5898 14.2736C15.5898 14.2736 20.6748 13.7821 20.1832 20.5989C20.1832 21.4369 21.7224 20.9373 21.6418 20.4458C21.6418 15.7159 19.2484 13.4519 15.606 14.1126" fill="#383A3D"/>
<path d="M15.5898 14.2736C15.5898 14.2736 20.6748 13.7821 20.1832 20.5989C20.1832 21.4369 21.7224 20.9373 21.6418 20.4458C21.6418 15.7159 19.2484 13.4519 15.606 14.1126" stroke="black" stroke-width="0.28209" stroke-miterlimit="10" stroke-linejoin="round"/>
<path d="M24.7041 14.6578C25.5664 16.1323 25.9935 19.1701 25.9935 19.1701C25.9935 19.1701 26.2433 20.0887 27.6938 19.2829C26.4125 15.1251 27.1217 14.6578 24.8169 14.3516" stroke="black" stroke-width="0.28209" stroke-miterlimit="10"/>
<path d="M29.7405 18.6519C32.3311 19.4132 31.4021 22.5986 31.5559 21.9324C32.1373 19.4132 28.561 16.0418 27.2826 15.2999C26.7884 14.9292 25.5694 14.2169 24.6475 14.3329" stroke="black" stroke-width="0.28209" stroke-miterlimit="10"/>
<path d="M29.9213 7.47014C29.9696 7.51081 30.1377 6.90959 29.7877 6.49081C29.7877 6.49081 30.067 4.66259 27.4499 2.82805C25.4478 1.38812 24.3843 2.43153 24.3081 2.57369C24.3081 2.57369 21.3055 0.909505 18.175 3.7188" stroke="black" stroke-width="0.28209" stroke-miterlimit="10" stroke-linejoin="round"/>
<path d="M15.2352 14.6379C16.0004 13.2455 17.5238 13.6227 16.5568 8.33675" stroke="black" stroke-width="0.28209" stroke-miterlimit="10" stroke-linejoin="round"/>
<path d="M24.5192 14.6866C24.5837 13.3893 25.7522 13.9292 27.791 12.1484" stroke="black" stroke-width="0.28209" stroke-miterlimit="10" stroke-linecap="round" stroke-linejoin="round"/>
<path d="M18.0869 12.3906C18.0869 12.3906 18.4173 12.6527 18.6155 12.6914" stroke="black" stroke-width="0.28209" stroke-miterlimit="10" stroke-linecap="round" stroke-linejoin="round"/>
<path d="M17.1396 12.6094C17.1396 12.6094 17.1444 12.6616 17.1023 12.7708" stroke="black" stroke-width="0.28209" stroke-miterlimit="10" stroke-linecap="round" stroke-linejoin="round"/>
<path d="M18.1865 3.71094C18.1511 3.71417 15.2994 6.6014 17.0291 9.46203C17.0413 9.59613 17.1761 9.59778 17.161 9.8245C17.0291 10.1549 17.0261 10.6947 17.2738 10.1549C17.2738 10.1549 16.8305 10.8881 17.9185 12.1935" stroke="black" stroke-width="0.28209" stroke-miterlimit="10" stroke-linecap="round" stroke-linejoin="round"/>
<path d="M18.626 10.0463C18.626 10.0463 19.4843 14.9422 26.2112 13.0331C26.2112 13.0331 29.411 12.3233 29.9201 7.46992C29.9201 7.46992 30.2659 6.7278 29.2555 6.06753C29.2555 6.06753 29.4222 5.17453 27.9841 5.26386C27.9841 5.26386 27.2526 4.03477 25.7476 4.29739C25.3825 4.37248 25.5097 4.86247 25.5097 4.86247C25.5097 4.86247 25.3873 5.33344 24.6901 4.93721C24.034 4.53724 21.6071 3.29552 19.3372 6.05228C18.0013 7.72068 18.626 10.0463 18.626 10.0463Z" fill="#E2DAC3" stroke="black" stroke-width="0.28209" stroke-miterlimit="10"/>
<path d="M24.6624 6.89952C24.6624 6.89952 25.0359 7.82686 24.6954 9.9897C24.6328 10.6642 24.7891 10.5663 25.1989 10.529C25.6088 10.4916 26.9277 10.455 26.7407 9.76141C26.5499 9.02641 26.0341 7.44325 26.0341 7.44325" stroke="black" stroke-width="0.28209" stroke-miterlimit="10" stroke-linecap="round" stroke-linejoin="round"/>
<path d="M27.6468 10.6505C27.5347 10.3263 27.188 10.1489 26.7259 10.0657C26.5177 10.5026 25.5676 10.5057 25.2398 10.5356C24.871 10.5692 24.6736 10.6708 24.7438 10.0792C23.6896 10.3007 23.2468 10.8845 23.2468 10.8845C23.2468 10.8845 22.0669 11.9953 24.2393 12.257C26.3708 12.5224 27.8748 11.3403 27.6468 10.6505Z" fill="#94551F" stroke="black" stroke-width="0.28209" stroke-miterlimit="10"/>
<path d="M26.103 11.0413C26.1264 11.1068 26.0416 11.4631 25.8091 11.546C25.5767 11.6288 25.2846 11.4069 25.2613 11.3414C25.2379 11.2759 25.4498 11.275 25.6822 11.1922C25.9147 11.1093 26.0797 10.9758 26.103 11.0413Z" fill="black"/>
<path d="M28.8289 10.9189C28.8289 10.9189 28.6079 9.85227 27.3328 9.00714C27.3328 9.00714 28.1901 9.34697 28.7488 9.12883C28.7488 9.12883 29.4384 9.44215 29.461 9.69089L28.8289 10.9189Z" fill="#92581C" stroke="black" stroke-width="0.28209" stroke-miterlimit="10"/>
<path d="M26.3091 6.38128C26.3091 6.38128 26.4617 6.24197 26.7039 6.17809C26.946 6.11422 29.3525 5.76939 29.7072 6.48944" stroke="black" stroke-width="0.28209" stroke-miterlimit="10" stroke-linecap="round" stroke-linejoin="round"/>
<path d="M26.1519 5.55919C26.1519 5.55919 27.3215 5.24354 28.4469 5.34994" stroke="black" stroke-width="0.28209" stroke-miterlimit="10" stroke-linecap="round" stroke-linejoin="round"/>
<path d="M23.8679 5.89186C23.8679 5.89186 24.7657 5.7682 24.6512 6.78183C24.6107 7.24532 23.9621 6.92827 23.5857 6.87898C23.1684 6.83344 22.3671 6.65569 20.434 7.20816C19.7449 7.35459 19.547 6.99643 20.1203 6.48437C20.6935 5.9723 23.1599 5.83102 23.1599 5.83102" stroke="black" stroke-width="0.28209" stroke-miterlimit="10" stroke-linecap="round" stroke-linejoin="round"/>
<path d="M20.954 9.7636C20.954 9.7636 19.6544 10.4673 19.3275 11.4167C19.3275 11.4167 18.8725 10.9566 18.7637 10.2141C18.7637 10.2141 19.1914 9.46452 20.3793 8.8964C20.3831 8.93786 20.555 9.46558 20.954 9.7636Z" fill="#91591F" stroke="black" stroke-width="0.28209" stroke-miterlimit="10"/>
<path d="M20.2153 8.43819C20.2153 8.43819 20.4071 10.0927 22.1099 10.1882" stroke="black" stroke-width="0.28209" stroke-miterlimit="10" stroke-linecap="round" stroke-linejoin="round"/>
<path d="M24.8495 3.04258C24.8495 3.04258 24.581 2.81627 24.3686 2.75204" stroke="black" stroke-width="0.28209" stroke-miterlimit="10" stroke-linecap="round" stroke-linejoin="round"/>
<path d="M29.8711 7.39604C29.8711 7.39604 28.1151 6.26036 26.123 7.52879C26.123 7.52879 26.1918 9.1945 28.1815 9.26388C29.7614 9.37063 29.9385 7.68249 29.8711 7.39604Z" fill="white" stroke="black" stroke-width="0.28209" stroke-miterlimit="10" stroke-linecap="round" stroke-linejoin="round"/>
<path d="M24.2278 7.10389C24.2278 7.10389 24.4483 7.71079 24.3927 8.00845C24.3371 8.30612 23.9843 9.42508 22.7177 9.58237C21.451 9.73967 20.7011 8.76304 20.1519 7.26653C20.1519 7.26653 21.7609 6.78542 22.3012 6.81976C22.8415 6.85409 23.4115 6.76032 24.2278 7.10389Z" fill="white" stroke="black" stroke-width="0.28209" stroke-miterlimit="10" stroke-linecap="round" stroke-linejoin="round"/>
<path d="M29.4047 9.5214C29.4047 9.5214 29.7207 8.90738 29.6943 8.61719C29.6943 8.61719 29.4414 9.01645 28.9609 9.18566C28.9647 9.22711 29.1512 9.4609 29.4047 9.5214Z" fill="black"/>
<path d="M20.9265 7.16252C20.9265 7.16252 20.9388 8.2064 21.5577 8.65156C22.1319 9.05901 23.1828 9.25578 23.8225 8.11066C24.0717 7.66995 23.8959 7.10077 23.7579 6.94615C23.6274 6.87445 22.081 6.68106 20.9265 7.16252Z" fill="black"/>
<path d="M22.8598 7.0631L23.2221 7.86607C23.2221 7.86607 23.3525 7.93777 23.4194 7.76447C23.5273 7.58744 23.5937 6.95439 22.8598 7.0631Z" fill="white"/>
<path d="M23.6641 7.28906L23.6382 7.45862L23.6791 7.45489L23.6641 7.28906Z" fill="white"/>
<path d="M26.7397 7.25404C26.7397 7.25404 26.6059 7.60063 26.8151 8.08316C27.0242 8.56569 27.8222 9.16173 28.7529 8.49166C29.2965 8.1077 29.2734 7.39921 29.1241 7.12023C29.1241 7.12023 27.9724 6.72364 26.7397 7.25404Z" fill="black"/>
<path d="M28.3014 7.14801C28.3014 7.14801 28.797 7.14462 28.8865 7.22006C28.976 7.2955 28.8535 7.76647 28.6076 7.78889C28.3617 7.8113 28.227 7.23839 28.3014 7.14801Z" fill="white"/>
<path d="M27.1136 8.17833C27.1136 8.17833 27.2516 8.33294 27.4678 8.43863" stroke="white" stroke-width="0.28209" stroke-miterlimit="10" stroke-linecap="round"/>
<path d="M25.9921 9.71414C25.9921 9.71414 26.1113 9.66147 26.1711 9.86501C26.231 10.0686 26.0223 10.0458 25.9738 9.96661C25.9662 9.8837 25.9177 9.80452 25.9921 9.71414Z" fill="black"/>
<path d="M25.419 9.75236C25.419 9.75236 25.5198 9.95217 25.4006 10.0048C25.2852 10.099 25.1957 10.0235 25.2254 9.89541C25.2141 9.77104 25.3742 9.71464 25.419 9.75236Z" fill="black"/>
<path d="M20.9258 19.7188C21.113 19.7189 21.252 19.8617 21.252 20.0215C21.2518 20.1812 21.1129 20.3231 20.9258 20.3232C20.7384 20.3232 20.5987 20.1813 20.5986 20.0215C20.5986 19.8616 20.7384 19.7188 20.9258 19.7188Z" fill="#572F0C" stroke="black" stroke-width="0.28209"/>
<path d="M26.6621 18.3281C26.8493 18.3283 26.9883 18.4711 26.9883 18.6309C26.9882 18.7906 26.8493 18.9324 26.6621 18.9326C26.4748 18.9326 26.3351 18.7907 26.335 18.6309C26.335 18.471 26.4747 18.3281 26.6621 18.3281Z" fill="#572F0C" stroke="black" stroke-width="0.28209"/>
<path d="M2 6.2842C4.51828 6.2842 5.07789 2.24488 5.07789 0.898438C5.07789 4.77618 7.22309 6.01491 8.15579 6.2842C6.47694 6.55348 5.3577 8.4385 5.07789 11.67C4.79809 7.36135 3.11923 6.55348 2 6.2842Z" fill="#FCD535" stroke="black" stroke-width="0.16"/>
<path d="M6.7998 12.9C8.1089 12.9 8.3998 11.1 8.3998 10.5C8.3998 12.228 9.51496 12.78 9.9998 12.9C9.12708 13.02 8.54526 13.86 8.3998 15.3C8.25435 13.38 7.38162 13.02 6.7998 12.9Z" fill="#FCD535" stroke="black" stroke-width="0.16"/>
</svg>
