<svg width="200" height="200" viewBox="0 0 200 200" fill="none" xmlns="http://www.w3.org/2000/svg">
<rect width="200" height="200" rx="50" fill="black"/>
<rect x="1.5625" y="1.5625" width="196.875" height="196.875" rx="48.4375" fill="url(#paint0_linear_565_3285)"/>
<rect x="1.5625" y="1.5625" width="196.875" height="196.875" rx="48.4375" stroke="url(#paint1_linear_565_3285)" stroke-width="3.125"/>
<circle cx="100" cy="100" r="50" fill="#ADFF43" fill-opacity="0.06"/>
<circle cx="100" cy="100" r="68.75" fill="#ADFF43" fill-opacity="0.06"/>
<circle cx="100" cy="100" r="87.5" fill="#ADFF43" fill-opacity="0.06"/>
<ellipse cx="100.306" cy="117.757" rx="78.6754" ry="61.3977" fill="white"/>
<path d="M30.9541 108.184C36.7575 105.278 50.7876 100.227 64.2158 101.562C87.6403 103.89 90.4719 137.56 63.1865 142.132C54.5652 143.576 47.4455 150.278 43.8379 155.387C33.6254 146.542 29.9836 134.486 29.9834 121.197C29.9834 116.466 30.3245 112.136 30.9541 108.184ZM67.8213 109.899C61.424 109.899 56.2385 115.655 56.2383 122.756C56.2383 129.857 61.4239 135.613 67.8213 135.613C74.2187 135.613 79.4053 129.857 79.4053 122.756C79.4051 115.655 74.2186 109.899 67.8213 109.899Z" fill="#ADFF43"/>
<path d="M169.271 108.188C163.472 105.283 149.437 100.226 136.004 101.562C112.58 103.89 109.748 137.56 137.033 142.132C145.657 143.577 152.778 150.281 156.385 155.391C166.6 146.545 170.242 134.487 170.242 121.197C170.242 116.468 169.901 112.139 169.271 108.188ZM132.398 109.924C138.796 109.924 143.981 115.68 143.981 122.78C143.981 129.881 138.796 135.638 132.398 135.638C126.001 135.638 120.814 129.881 120.814 122.78C120.815 115.68 126.001 109.924 132.398 109.924Z" fill="#5CFFA8"/>
<ellipse cx="67.6076" cy="122.682" rx="8.9474" ry="10.1815" fill="black"/>
<ellipse cx="8.9474" cy="10.1815" rx="8.9474" ry="10.1815" transform="matrix(-1 0 0 1 141.345 112.5)" fill="black"/>
<path d="M100.261 120.179C105.805 120.179 110.3 123.378 110.3 127.322C110.3 131.146 106.077 134.267 100.769 134.455V142.734C107.24 142.391 111.057 136.904 112.166 134.12L113.579 134.812C112.297 138.033 107.832 144.466 100.129 144.466C92.4177 144.466 88.1262 138.021 86.9316 134.791L88.3604 134.141C89.3722 136.877 92.9358 142.24 99.2236 142.717V134.427C94.1664 134.058 90.2219 131.018 90.2217 127.322C90.2217 123.377 94.7163 120.179 100.261 120.179Z" fill="black"/>
<path d="M85.583 35.1172C87.3865 18.3695 102.542 14.7032 108.495 15.8047C111.583 16.377 103.347 26.0901 103.347 31.5186C106.436 28.0902 112.871 24.6623 119.049 26.6621C120.912 27.2658 115.817 32.1593 113.497 34.9893C155.139 40.5904 187.006 71.6975 187.006 109.232C187.006 150.732 165.898 184.374 100 184.374C34.1026 184.374 12.9942 150.732 12.9941 109.232C12.9943 71.9745 44.3924 41.0496 85.583 35.1172ZM101.632 66.8584C100.432 68.5152 98.3197 72.2593 97.3828 76.4561C94.8889 72.9455 90.9382 70.3439 88.8916 69.3252C91.9256 72.5197 92.8644 75.6546 92.9219 78.0439C92.5533 77.9567 92.1875 77.8654 91.8242 77.7686C90.1667 76.2156 88.1775 75.2523 87.042 74.8789C87.5702 75.2429 88.0421 75.9396 88.4424 76.7432C81.7815 74.523 75.2641 71.5022 64.7344 72.335C47.8708 73.6689 29.9835 86.8596 29.9834 121.198C29.9836 148.254 45.0774 170.203 100 170.339C154.923 170.203 170.016 148.254 170.017 121.198C170.017 86.8592 152.129 73.6687 135.266 72.335C122.195 71.3013 115.307 76.2047 106.651 78.1436C107.161 76.5461 108.081 74.4042 109.253 73.6582C107.504 74.1894 103.884 75.9132 102.088 78.8291C102.043 78.8323 101.998 78.8358 101.953 78.8389C100.932 75.8393 99.9255 70.7294 101.632 66.8584Z" fill="url(#paint2_linear_565_3285)"/>
<defs>
<linearGradient id="paint0_linear_565_3285" x1="100" y1="0" x2="100" y2="200" gradientUnits="userSpaceOnUse">
<stop stop-color="#65FF43" stop-opacity="0"/>
<stop offset="1" stop-color="#43FF65" stop-opacity="0.4"/>
</linearGradient>
<linearGradient id="paint1_linear_565_3285" x1="100" y1="0" x2="100" y2="200" gradientUnits="userSpaceOnUse">
<stop stop-color="#5FFF43" stop-opacity="0.8"/>
<stop offset="1" stop-color="#ADFF43" stop-opacity="0.1"/>
</linearGradient>
<linearGradient id="paint2_linear_565_3285" x1="230.619" y1="-11.7257" x2="230.619" y2="202.786" gradientUnits="userSpaceOnUse">
<stop stop-color="#5CFFA8"/>
<stop offset="1" stop-color="#ADFF43"/>
</linearGradient>
</defs>
</svg>
